<svg viewBox="0 0 220 220" xmlns="http://www.w3.org/2000/svg" fill="none">
  <style>
    :root { --fg: white; --bg: #111118; }
    @media (prefers-color-scheme: light) {
      :root { --fg: #111118; --bg: white; }
    }
  </style>
  <circle cx="110" cy="110" r="108" fill="var(--bg)" />
  <!-- Core -->
  <rect x="93" y="93" width="34" height="34" rx="3" stroke="var(--fg)" stroke-width="6" fill="none" />
  <rect x="101" y="101" width="18" height="18" rx="2" fill="var(--fg)" />
  <!-- Top T-fork -->
  <path d="M110 93 L110 51 L72 29" stroke="var(--fg)" stroke-width="6" stroke-linecap="round" />
  <path d="M110 93 L110 51 L148 29" stroke="var(--fg)" stroke-width="6" stroke-linecap="round" />
  <rect x="62" y="21" width="20" height="16" rx="5" stroke="var(--fg)" stroke-width="5" fill="none" />
  <rect x="138" y="21" width="20" height="16" rx="5" stroke="var(--fg)" stroke-width="5" fill="none" />
  <!-- Right T-fork -->
  <path d="M127 110 L169 110 L191 78" stroke="var(--fg)" stroke-width="6" stroke-linecap="round" />
  <path d="M127 110 L169 110 L191 142" stroke="var(--fg)" stroke-width="6" stroke-linecap="round" />
  <rect x="183" y="70" width="16" height="16" rx="5" stroke="var(--fg)" stroke-width="5" fill="none" />
  <rect x="183" y="134" width="16" height="16" rx="5" stroke="var(--fg)" stroke-width="5" fill="none" />
  <!-- Bottom T-fork -->
  <path d="M110 127 L110 169 L72 191" stroke="var(--fg)" stroke-width="6" stroke-linecap="round" />
  <path d="M110 127 L110 169 L148 191" stroke="var(--fg)" stroke-width="6" stroke-linecap="round" />
  <rect x="62" y="183" width="20" height="16" rx="5" stroke="var(--fg)" stroke-width="5" fill="none" />
  <rect x="138" y="183" width="20" height="16" rx="5" stroke="var(--fg)" stroke-width="5" fill="none" />
  <!-- Left T-fork -->
  <path d="M93 110 L51 110 L29 78" stroke="var(--fg)" stroke-width="6" stroke-linecap="round" />
  <path d="M93 110 L51 110 L29 142" stroke="var(--fg)" stroke-width="6" stroke-linecap="round" />
  <rect x="21" y="70" width="16" height="16" rx="5" stroke="var(--fg)" stroke-width="5" fill="none" />
  <rect x="21" y="134" width="16" height="16" rx="5" stroke="var(--fg)" stroke-width="5" fill="none" />
</svg>
